
<svg xmlns="http://www.w3.org/2000/svg" version="1.1" xmlns:xlink="http://www.w3.org/1999/xlink" preserveAspectRatio="none" x="0px" y="0px" width="1455px" height="701px" viewBox="0 0 1455 701">
<defs>
<g id="S_mbolo_5_0_Layer0_0_FILL">
<path fill="#FFFFFF" fill-opacity="0.09803921568627451" stroke="none" d="
M 4.4 4.4
Q 0 8.75 0 15 0 21.25 4.4 25.65 8.8 30.1 15.05 30.1 21.25 30.1 25.7 25.65 30.1 21.25 30.1 15 30.1 8.75 25.7 4.4 21.25 0 15.05 0 8.75 0 4.4 4.4 Z"/>
</g>

<g id="S_mbolo_4_0_Layer0_0_FILL">
<path fill="#FFFFFF" fill-opacity="0.09803921568627451" stroke="none" d="
M 47.4 -37.8
Q 29.8 -55.4 4.95 -55.4 -19.9 -55.4 -37.5 -37.8 -55 -20.2 -55 4.6 -55 29.5 -37.5 47 -19.9 64.6 4.95 64.6 29.8 64.6 47.4 47 65 29.5 65 4.6 65 -20.2 47.4 -37.8 Z"/>
</g>

<g id="S_mbolo_4_0_Layer0_1_FILL">
<path fill="#FFFFFF" fill-opacity="0.09803921568627451" stroke="none" d="
M 19.15 -18.1
Q 11.45 -25.35 0.6 -25.35 -10.35 -25.35 -17.95 -18.1 -25.7 -10.9 -25.7 -0.65 -25.7 9.6 -17.95 16.9 -10.25 24.15 0.6 24.15 11.45 24.15 19.15 16.9 26.9 9.6 26.9 -0.65 26.9 -10.9 19.15 -18.1 Z"/>
</g>

<g id="S_mbolo_3_0_Layer0_0_FILL">
<path fill="#FFFFFF" fill-opacity="0.09803921568627451" stroke="none" d="
M 77.7 18.8
Q 65.95 7 49.25 7 32.6 7 20.8 18.8 9 30.6 9 47.25 9 63.95 20.8 75.7 32.6 87.5 49.25 87.5 65.95 87.5 77.7 75.7 89.5 63.95 89.5 47.25 89.5 30.6 77.7 18.8 Z"/>
</g>

<g id="S_mbolo_3_0_Layer0_1_FILL">
<path fill="#FFFFFF" fill-opacity="0.09803921568627451" stroke="none" d="
M -216.5 -166.55
Q -233.6 -149.5 -233.6 -125.25 -233.6 -101.05 -216.5 -83.9 -199.3 -66.75 -175.05 -66.75 -150.85 -66.75 -133.75 -83.9 -116.6 -101.05 -116.6 -125.25 -116.6 -149.4 -133.75 -166.55 -150.95 -183.75 -175.05 -183.75 -199.3 -183.75 -216.5 -166.55 Z"/>
</g>

<g id="S_mbolo_3_0_Layer0_2_FILL">
<path fill="#FFFFFF" fill-opacity="0.09803921568627451" stroke="none" d="
M 750 422.5
Q 738.5 422.5 730.55 430.6 722.5 438.55 722.5 449.95 722.5 461.35 730.55 469.45 738.6 477.5 750 477.5 761.35 477.5 769.4 469.45 777.5 461.35 777.5 449.95 777.5 438.55 769.4 430.6 761.35 422.5 750 422.5 Z"/>
</g>

<path id="Layer0_0_1_STROKES" stroke="#FFFFFF" stroke-opacity="0.09803921568627451" stroke-width="3" stroke-linejoin="round" stroke-linecap="round" fill="none" d="
M 250.9 185.1
L 344.45 330.55 359.7 15.25 447.4 142.55 723.75 130.2 997.6 10.7 982.6 132 1132.8 22.45
M 1096.25 308.5
L 982.6 132 951.7 302.65 1096.25 308.5 1248.15 143.65 1392.4 321.9 1249.15 382.15 1446.35 454.8
M 1096.25 308.5
L 1249.15 382.15 1248.15 143.65
M 873.95 299.45
L 916.4 497.15 951.7 302.65 873.95 299.45 982.6 132 723.75 130.2 763.6 364.35 873.95 299.45 Z
M 1249.15 382.15
L 1199.75 545.25 1015.7 598.5 916.4 497.15 643.45 579.95 737.8 658.5
M 1199.75 545.25
L 1096.25 308.5 916.4 497.15 1199.75 545.25 Z
M 763.6 364.35
L 916.4 497.15
M 530.1 297.95
L 447.4 142.55 344.45 330.55 530.1 297.95 723.75 130.2
M 315.65 485.25
L 344.45 330.55 166.55 453.9 315.65 485.25 458.1 515.2 530.1 297.95 763.6 364.35 643.45 579.95 458.1 515.2 464.6 628.6
M 315.65 485.25
L 286.3 642.6 458.1 515.2 763.6 364.35
M 166.55 453.9
L 286.3 642.6 14.15 480.45 166.55 453.9 74.55 240.45 344.45 330.55"/>
</defs>

<g transform="matrix( 1.6052703857421875, 0, 0, 1.6052703857421875, 335.4,-8.9) ">
<g transform="matrix( 0.6677703857421875, 0, 0, 0.6677703857421875, 4.55,5.55) ">
<use xlink:href="#S_mbolo_5_0_Layer0_0_FILL"/>
</g>
</g>

<g transform="matrix( 1.6293487548828125, 0, 0, 1.629058837890625, 226.95,159.5) ">
<g transform="matrix( 0.6677703857421875, 0, 0, 0.6677703857421875, 4.55,5.55) ">
<use xlink:href="#S_mbolo_5_0_Layer0_0_FILL"/>
</g>
</g>

<g transform="matrix( 1, 0, 0, 1, 329.4,315.5) ">
<g transform="matrix( 0.6677703857421875, 0, 0, 0.6677703857421875, 4.55,5.55) ">
<use xlink:href="#S_mbolo_5_0_Layer0_0_FILL"/>
</g>
</g>

<g transform="matrix( 1, 0, 0, 1, 515.05,282.9) ">
<g transform="matrix( 0.6677703857421875, 0, 0, 0.6677703857421875, 4.55,5.55) ">
<use xlink:href="#S_mbolo_5_0_Layer0_0_FILL"/>
</g>
</g>

<g transform="matrix( 1, 0, 0, 1, 708.7,115.15) ">
<g transform="matrix( 0.6677703857421875, 0, 0, 0.6677703857421875, 4.55,5.55) ">
<use xlink:href="#S_mbolo_5_0_Layer0_0_FILL"/>
</g>
</g>

<g transform="matrix( 1, 0, 0, 1, 59.5,225.4) ">
<g transform="matrix( 0.6677703857421875, 0, 0, 0.6677703857421875, 4.55,5.55) ">
<use xlink:href="#S_mbolo_5_0_Layer0_0_FILL"/>
</g>
</g>

<g transform="matrix( 1.5729217529296875, 0, 0, 1.5729217529296875, 434.45,491.55) ">
<g transform="matrix( 0.6677703857421875, 0, 0, 0.6677703857421875, 4.55,5.55) ">
<use xlink:href="#S_mbolo_5_0_Layer0_0_FILL"/>
</g>
</g>

<g transform="matrix( 1, 0, 0, 1, 449.55,613.55) ">
<g transform="matrix( 0.6677703857421875, 0, 0, 0.6677703857421875, 4.55,5.55) ">
<use xlink:href="#S_mbolo_5_0_Layer0_0_FILL"/>
</g>
</g>

<g transform="matrix( 1, 0, 0, 1, 628.4,564.9) ">
<g transform="matrix( 0.6677703857421875, 0, 0, 0.6677703857421875, 4.55,5.55) ">
<use xlink:href="#S_mbolo_5_0_Layer0_0_FILL"/>
</g>
</g>

<g transform="matrix( 1, 0, 0, 1, 1000.65,583.45) ">
<g transform="matrix( 0.6677703857421875, 0, 0, 0.6677703857421875, 4.55,5.55) ">
<use xlink:href="#S_mbolo_5_0_Layer0_0_FILL"/>
</g>
</g>

<g transform="matrix( 1, 0, 0, 1, 1184.7,530.2) ">
<g transform="matrix( 0.6677703857421875, 0, 0, 0.6677703857421875, 4.55,5.55) ">
<use xlink:href="#S_mbolo_5_0_Layer0_0_FILL"/>
</g>
</g>

<g transform="matrix( 1, 0, 0, 1, 858.9,284.4) ">
<g transform="matrix( 0.6677703857421875, 0, 0, 0.6677703857421875, 4.55,5.55) ">
<use xlink:href="#S_mbolo_5_0_Layer0_0_FILL"/>
</g>
</g>

<g transform="matrix( 1, 0, 0, 1, 1081.2,293.45) ">
<g transform="matrix( 0.6677703857421875, 0, 0, 0.6677703857421875, 4.55,5.55) ">
<use xlink:href="#S_mbolo_5_0_Layer0_0_FILL"/>
</g>
</g>

<g transform="matrix( 1, 0, 0, 1, 1376.7,306.2) ">
<g transform="matrix( 0.6677703857421875, 0, 0, 0.6677703857421875, 4.55,5.55) ">
<use xlink:href="#S_mbolo_5_0_Layer0_0_FILL"/>
</g>
</g>

<g transform="matrix( 1, 0, 0, 1, 1431.3,439.75) ">
<g transform="matrix( 0.6677703857421875, 0, 0, 0.6677703857421875, 4.55,5.55) ">
<use xlink:href="#S_mbolo_5_0_Layer0_0_FILL"/>
</g>
</g>

<g transform="matrix( 1, 0, 0, 1, 982.55,-4.35) ">
<g transform="matrix( 0.6677703857421875, 0, 0, 0.6677703857421875, 4.55,5.55) ">
<use xlink:href="#S_mbolo_5_0_Layer0_0_FILL"/>
</g>
</g>

<g transform="matrix( 1.3946380615234375, 0, 0, 1.394775390625, 1111.8,1.55) ">
<g transform="matrix( 0.6677703857421875, 0, 0, 0.6677703857421875, 4.55,5.55) ">
<use xlink:href="#S_mbolo_5_0_Layer0_0_FILL"/>
</g>
</g>

<g transform="matrix( 0.71014404296875, 0, 0, 0.71014404296875, 243.7,600) ">
<g transform="matrix( 1, 0, 0, 1, 55,55.4) ">
<use xlink:href="#S_mbolo_4_0_Layer0_0_FILL"/>
</g>

<g transform="matrix( 1, 0, 0, 1, 59.4,60.6) ">
<use xlink:href="#S_mbolo_4_0_Layer0_1_FILL"/>
</g>
</g>

<g transform="matrix( 0.71014404296875, 0, 0, 0.71014404296875, 720.95,321.65) ">
<g transform="matrix( 1, 0, 0, 1, 55,55.4) ">
<use xlink:href="#S_mbolo_4_0_Layer0_0_FILL"/>
</g>

<g transform="matrix( 1, 0, 0, 1, 59.4,60.6) ">
<use xlink:href="#S_mbolo_4_0_Layer0_1_FILL"/>
</g>
</g>

<g transform="matrix( 0.5342254638671875, 0, 0, 0.55120849609375, 950.5,98.8) ">
<g transform="matrix( 1, 0, 0, 1, 55,55.4) ">
<use xlink:href="#S_mbolo_4_0_Layer0_0_FILL"/>
</g>

<g transform="matrix( 1, 0, 0, 1, 59.4,60.6) ">
<use xlink:href="#S_mbolo_4_0_Layer0_1_FILL"/>
</g>
</g>

<g transform="matrix( 0.71014404296875, 0, 0, 0.71014404296875, 1205.5,100.95) ">
<g transform="matrix( 1, 0, 0, 1, 55,55.4) ">
<use xlink:href="#S_mbolo_4_0_Layer0_0_FILL"/>
</g>

<g transform="matrix( 1, 0, 0, 1, 59.4,60.6) ">
<use xlink:href="#S_mbolo_4_0_Layer0_1_FILL"/>
</g>
</g>

<g transform="matrix( 0.71014404296875, 0, 0, 0.71014404296875, 695.15,615.8) ">
<g transform="matrix( 1, 0, 0, 1, 55,55.4) ">
<use xlink:href="#S_mbolo_4_0_Layer0_0_FILL"/>
</g>

<g transform="matrix( 1, 0, 0, 1, 59.4,60.6) ">
<use xlink:href="#S_mbolo_4_0_Layer0_1_FILL"/>
</g>
</g>

<g transform="matrix( 0.5546722412109375, 0, 0, 0.5546722412109375, 405.75,100.95) ">
<g transform="matrix( -0.0000152587890625, 1.8633880615234375, -1.8633880615234375, -0.0000152587890625, 163.05,-16.75) ">
<use xlink:href="#S_mbolo_3_0_Layer0_0_FILL"/>
</g>

<g transform="matrix( 1, 0, 0, 1, 250.1,200.25) ">
<use xlink:href="#S_mbolo_3_0_Layer0_1_FILL"/>
</g>

<g transform="matrix( 1, 0, 0, 1, -675,-375) ">
<use xlink:href="#S_mbolo_3_0_Layer0_2_FILL"/>
</g>
</g>

<g transform="matrix( 0.5546722412109375, 0, 0, 0.5546722412109375, 874.75,455.55) ">
<g transform="matrix( -0.0000152587890625, 1.8633880615234375, -1.8633880615234375, -0.0000152587890625, 163.05,-16.75) ">
<use xlink:href="#S_mbolo_3_0_Layer0_0_FILL"/>
</g>

<g transform="matrix( 1, 0, 0, 1, 250.1,200.25) ">
<use xlink:href="#S_mbolo_3_0_Layer0_1_FILL"/>
</g>

<g transform="matrix( 1, 0, 0, 1, -675,-375) ">
<use xlink:href="#S_mbolo_3_0_Layer0_2_FILL"/>
</g>
</g>

<g transform="matrix( 0.5546722412109375, 0, 0, 0.5546722412109375, 1207.5,340.55) ">
<g transform="matrix( -0.0000152587890625, 1.8633880615234375, -1.8633880615234375, -0.0000152587890625, 163.05,-16.75) ">
<use xlink:href="#S_mbolo_3_0_Layer0_0_FILL"/>
</g>

<g transform="matrix( 1, 0, 0, 1, 250.1,200.25) ">
<use xlink:href="#S_mbolo_3_0_Layer0_1_FILL"/>
</g>

<g transform="matrix( 1, 0, 0, 1, -675,-375) ">
<use xlink:href="#S_mbolo_3_0_Layer0_2_FILL"/>
</g>
</g>

<g transform="matrix( 0.5546722412109375, 0, 0, 0.5546722412109375, 124.95,412.3) ">
<g transform="matrix( -0.0000152587890625, 1.8633880615234375, -1.8633880615234375, -0.0000152587890625, 163.05,-16.75) ">
<use xlink:href="#S_mbolo_3_0_Layer0_0_FILL"/>
</g>

<g transform="matrix( 1, 0, 0, 1, 250.1,200.25) ">
<use xlink:href="#S_mbolo_3_0_Layer0_1_FILL"/>
</g>

<g transform="matrix( 1, 0, 0, 1, -675,-375) ">
<use xlink:href="#S_mbolo_3_0_Layer0_2_FILL"/>
</g>
</g>

<g transform="matrix( 1.3576812744140625, 0, 0, 1.3576812744140625, -6.2,459.95) ">
<g transform="matrix( 0.6677703857421875, 0, 0, 0.6677703857421875, 4.55,5.55) ">
<use xlink:href="#S_mbolo_5_0_Layer0_0_FILL"/>
</g>
</g>

<g transform="matrix( 1, 0, 0, 1, 0,0) ">
<use xlink:href="#Layer0_0_1_STROKES"/>
</g>
</svg>
