
<svg xmlns="http://www.w3.org/2000/svg" version="1.1" xmlns:xlink="http://www.w3.org/1999/xlink" preserveAspectRatio="none" x="0px" y="0px" width="167px" height="167px" viewBox="0 0 167 167">
<defs>
<g id="Layer0_0_MEMBER_0_FILL">
<path fill="#DD5832" stroke="none" d="
M 113.15 8.3
Q 98.25 2 82 2 65.7 2 50.85 8.3 36.5 14.35 25.45 25.45 14.35 36.5 8.3 50.85 2 65.75 2 82 2 98.3 8.3 113.15 14.35 127.5 25.45 138.6 36.5 149.65 50.85 155.7 65.7 162 82 162 98.25 162 113.15 155.7 127.5 149.65 138.55 138.6 149.65 127.5 155.7 113.15 162 98.3 162 82 162 65.75 155.7 50.85 149.65 36.5 138.55 25.45 127.5 14.35 113.15 8.3 Z"/>
</g>

<g id="Layer0_0_MEMBER_1_FILL">
<path fill="#FEFEFE" stroke="none" d="
M 117.6 87.1
Q 118.1 86.55 119 86.55
L 125.7 86.55
Q 126.65 86.55 127.05 85.95 127.5 85.35 127.25 84.4
L 121.2 62
Q 117.8 47.4 106.5 38.1 94.95 28.6 79.95 28.6 62.55 28.6 50.15 40.9 37.7 53.2 37.7 70.55 37.7 80.8 42.4 90.25 46.8 99.15 54.9 106.35
L 54.9 126.65 94.5 133.1 94.5 115.7
Q 94.5 112.55 97.7 112.55
L 113.8 112.55
Q 115.15 112.55 116.1 111.6 117.05 110.65 117.05 109.3
L 117.05 88.5
Q 117.05 87.6 117.6 87.1 Z"/>
</g>

<g id="Layer0_0_MEMBER_2_FILL">
<path fill="#FCB913" stroke="none" d="
M 104.4 46.6
Q 102.4 45.05 100.1 45.35 98.45 45.5 97.15 46.5 97.6 44.4 96.6 42.5 95.4 40.3 93.1 39.65 90.8 38.9 88.65 40.05 87.15 40.9 86.35 42.25 86.05 40.15 84.35 38.7 82.45 37.1 80.05 37.25 77.6 37.5 76.05 39.25 75 40.55 74.7 42.1 73.65 40.3 71.55 39.55 69.15 38.8 67.05 39.8 64.85 40.95 64.05 43.15 63.55 44.65 63.85 46.25 62.15 44.85 59.95 45 57.55 45.05 55.85 46.85 54.15 48.7 54.3 51.05 54.3 52.7 55.15 54 53.2 53.5 51.15 54.4 48.95 55.35 48.05 57.65 47.15 60.2 48.05 62.2 48.45 63.05 49.25 63.7 50.05 64.4 51 64.55 48.85 64.95 47.45 66.6 46.05 68.25 46.05 70.4 46.05 72.85 47.8 74.55 49.5 76.25 51.95 76.25
L 60.6 76.25
Q 58.85 76.3 57.65 77.5 56.45 78.75 56.45 80.5 56.5 82.25 57.7 83.45 58.95 84.65 60.65 84.6
L 68.35 84.6 68.35 128.85 75.1 129.9 75.1 81.15
Q 75.1 76.45 79.6 76.3
L 107.95 76.3
Q 110.3 76.3 111.95 74.65 113.6 73 113.6 70.65 113.6 68.55 112.25 66.95 110.85 65.35 108.75 65.05 110.55 64.55 111.7 63.1 112.8 61.6 112.8 59.75 112.8 57.45 111.2 55.85 109.55 54.25 107.3 54.25 106.3 54.25 105.6 54.5 106.8 52.8 106.55 50.55 106.35 48.2 104.4 46.6 Z"/>
</g>

<path id="Layer0_0_MEMBER_0_1_STROKES" stroke="#FFFFFF" stroke-width="7" stroke-linejoin="round" stroke-linecap="round" fill="none" d="
M 82 2
Q 98.25 2 113.15 8.3 127.5 14.35 138.55 25.45 149.65 36.5 155.7 50.85 162 65.75 162 82 162 98.3 155.7 113.15 149.65 127.5 138.55 138.6 127.5 149.65 113.15 155.7 98.25 162 82 162 65.7 162 50.85 155.7 36.5 149.65 25.45 138.6 14.35 127.5 8.3 113.15 2 98.3 2 82 2 65.75 8.3 50.85 14.35 36.5 25.45 25.45 36.5 14.35 50.85 8.3 65.7 2 82 2 Z"/>
</defs>

<g transform="matrix( 1, 0, 0, 1, 1.5,1.5) ">
<use xlink:href="#Layer0_0_MEMBER_0_FILL"/>

<use xlink:href="#Layer0_0_MEMBER_0_1_STROKES"/>
</g>

<g transform="matrix( 1, 0, 0, 1, 3.5,3.5) ">
<use xlink:href="#Layer0_0_MEMBER_1_FILL"/>
</g>

<g transform="matrix( 1, 0, 0, 1, 3.5,3.5) ">
<use xlink:href="#Layer0_0_MEMBER_2_FILL"/>
</g>
</svg>
